<svg width="38" height="38" viewBox="0 0 38 38" fill="none" xmlns="http://www.w3.org/2000/svg">
<path d="M10.4453 10.7399C6.54481 14.6402 3.59614 18.753 2.00083 22.1824C1.20317 23.8972 0.748174 25.4412 0.658252 26.6649C0.568252 27.8886 0.825752 28.7407 1.36528 29.2803C1.90481 29.8199 2.75708 30.0774 3.98075 29.9874C5.20442 29.8974 6.74849 29.4425 8.46325 28.6449C11.8927 27.0495 16.0054 24.1009 19.9058 20.2005C23.8063 16.3 26.7549 12.1873 28.3502 8.75782C29.1479 7.04313 29.6029 5.49907 29.6928 4.2754C29.7828 3.05165 29.5253 2.19954 28.9858 1.66001C28.4461 1.1204 27.594 0.862819 26.3703 0.952819C25.1466 1.04282 23.6026 1.49774 21.8878 2.2954C18.4583 3.89071 14.3457 6.83938 10.4453 10.7399ZM11.534 11.5377C14.7833 8.28071 18.2169 5.64469 20.2756 4.5054C15.7553 8.09266 3.24989 18.8605 8.68396 26.0476C9.17653 26.6992 3.85896 28.7145 3.59278 27.9874C1.84435 23.2104 6.46489 16.6187 11.534 11.5377ZM2.2613 31.2532C2.64778 31.9534 3.09981 32.6953 3.52388 33.4917C3.79778 33.2714 4.14153 33.0907 4.42935 33.0206C5.0595 32.8733 5.68935 33.0885 6.12935 33.4493C6.56919 33.8102 6.87927 34.2938 7.12169 34.8149C7.4263 35.4693 7.62817 36.1791 7.70966 36.8464C7.93603 36.7704 8.16166 36.6922 8.38653 36.6119C8.43388 35.8595 8.37216 34.9713 8.36591 34.1132C8.36177 33.5451 8.38263 32.9854 8.52138 32.4505C8.72646 31.8427 8.96208 31.3713 9.45302 31.0331C10.0291 30.6389 10.7233 30.5697 11.3049 30.7318C11.8865 30.8939 12.3783 31.2381 12.8088 31.6359C13.5513 32.3222 14.118 33.1709 14.4449 33.862C14.675 33.7348 14.904 33.6055 15.1318 33.4742C14.9317 32.6862 14.7051 31.6049 14.6593 30.5224C14.6124 29.4146 14.7253 28.2188 15.4736 27.4263C15.5842 27.3112 15.705 27.2062 15.8345 27.1127C16.4491 26.6763 17.1851 26.5845 17.8354 26.7113C18.4856 26.8382 19.0768 27.1512 19.6091 27.5244C20.3286 28.0289 20.9365 28.633 21.3738 29.1752C21.6405 28.9588 21.9049 28.7396 22.1671 28.5177C21.7629 27.9082 21.3877 27.1038 21.1413 26.2C20.7814 24.8806 20.7487 23.2724 21.8632 22.1578C22.9778 21.0432 24.5861 21.0759 25.9054 21.4358C26.8092 21.6823 27.6136 22.0575 28.2232 22.4616C28.4451 22.1994 28.6643 21.935 28.8808 21.6684C28.3384 21.231 27.7343 20.6231 27.2299 19.9037C26.8566 19.3714 26.5436 18.7802 26.4168 18.1299C26.2899 17.4796 26.3818 16.7436 26.8182 16.1291C26.919 15.9892 27.0198 15.8775 27.1318 15.7681C27.9243 15.0199 29.1201 14.907 30.2279 14.9538C31.3104 14.9996 32.3916 15.2263 33.1796 15.4264C33.3109 15.1986 33.4402 14.9696 33.5675 14.7395C32.8763 14.4126 32.0277 13.8458 31.3415 13.1034C30.9435 12.6728 30.5994 12.1809 30.4373 11.5995C30.2751 11.0179 30.3443 10.3237 30.7386 9.74759C31.0607 9.27227 31.6574 8.94923 32.1559 8.81594C32.6908 8.67719 33.2506 8.65634 33.8186 8.66048C34.6767 8.66673 35.5651 8.72844 36.3174 8.6811C36.3977 8.45623 36.4758 8.23059 36.5518 8.00423C35.8846 7.92274 35.1748 7.72079 34.5203 7.41618C33.9993 7.17376 33.5156 6.86384 33.1547 6.42384C32.794 5.98399 32.5787 5.35407 32.7261 4.72383C32.834 4.37407 32.9872 4.05821 33.1972 3.81837C32.4008 3.39438 31.6589 2.94235 30.9587 2.55587C31.0867 3.11915 31.1204 3.73352 31.0731 4.3768C30.9648 5.84923 30.4504 7.52407 29.605 9.34165C27.914 12.9766 24.8813 17.1819 20.8843 21.1789C16.8875 25.1758 12.682 28.2086 9.047 29.8995C7.2295 30.745 5.55466 31.2593 4.08224 31.3676C3.43896 31.4149 2.8245 31.3813 2.2613 31.2532ZM4.41474 34.5308C4.4021 34.5425 4.38995 34.5548 4.37833 34.5676C4.30161 34.6598 4.23721 34.7616 4.18677 34.8705C4.54966 35.7309 4.83317 36.6535 4.9413 37.654C5.73677 36.912 5.94091 37.292 6.34599 37.2745C6.29896 36.7163 6.13489 35.9745 5.86692 35.3987C5.68271 35.0028 5.45224 34.6838 5.25177 34.5193C5.05122 34.3549 4.94083 34.3222 4.74427 34.3682C4.60317 34.4012 4.50153 34.4495 4.41474 34.5307V34.5308ZM34.2498 4.71329C34.1636 4.8086 34.1025 4.91954 34.0736 5.03876C34.0277 5.2354 34.0603 5.34579 34.2247 5.54626C34.3892 5.74673 34.7083 5.97727 35.1041 6.16141C35.6799 6.42938 36.4218 6.59344 36.9799 6.64055C36.8142 6.16134 36.8518 5.68954 37.3594 5.23587C36.359 5.12774 35.4364 4.84423 34.5759 4.48126C34.4472 4.53821 34.336 4.61798 34.2498 4.71329ZM10.1594 32.237C9.99536 32.3934 9.90599 32.6282 9.86099 32.798C9.77575 33.1263 9.74583 33.5845 9.74966 34.1031C9.75403 34.7056 9.8045 35.383 9.79786 36.0762C10.7161 35.4003 11.3615 34.4302 13.2193 34.5135C12.9811 34.0132 12.4505 33.1893 11.8693 32.6522C11.5424 32.35 11.2021 32.1397 10.9332 32.0647C10.6643 31.9897 10.4894 32.0006 10.2344 32.1752C10.2079 32.194 10.1829 32.2147 10.1594 32.237ZM31.9399 10.46C31.919 10.482 31.8992 10.505 31.8805 10.529C31.7061 10.7841 31.6951 10.9588 31.7701 11.2277C31.8451 11.4967 32.0554 11.837 32.3576 12.164C32.8947 12.7451 33.7186 13.2757 34.219 13.5138C34.1716 11.8959 34.9928 10.9896 35.7815 10.0924C35.0883 10.0991 34.411 10.0487 33.8085 10.0442C33.2899 10.0405 32.8318 10.0704 32.5034 10.1556C32.2728 10.2182 32.0844 10.3081 31.9398 10.46H31.9399ZM28.0321 16.8376C28.0013 16.8664 27.9727 16.8974 27.9465 16.9304C27.7401 17.221 27.7025 17.4932 27.775 17.865C27.8475 18.2368 28.0629 18.6813 28.3629 19.1091C28.7582 19.6728 29.3076 20.2066 29.7447 20.5699C30.0251 19.3904 31.0232 18.0768 32.4361 16.6718C31.7564 16.5166 30.9347 16.3688 30.1694 16.3364C29.514 16.3797 28.4983 16.4018 28.0321 16.8376ZM16.5882 28.2848C16.108 28.7623 16.0275 30.0363 16.0419 30.464C16.0743 31.2294 16.222 32.051 16.3772 32.7308C17.5383 31.7522 18.4713 30.5259 20.2754 30.0392C19.9121 29.6022 19.3783 29.0527 18.8146 28.6575C18.3867 28.3575 17.9422 28.1421 17.5704 28.0696C17.1987 27.997 16.9265 28.0348 16.6358 28.2411C16.6194 28.255 16.6035 28.2696 16.5882 28.2848ZM22.8417 23.1363C22.2164 23.7616 22.1837 24.7631 22.4763 25.8359C22.6514 26.478 22.9616 27.1164 23.2411 27.5849C24.2821 25.9313 25.6368 24.5766 27.2904 23.5356C26.8218 23.2562 26.1835 22.9459 25.5415 22.7708C24.4685 22.4782 23.467 22.5109 22.8417 23.1363Z" fill="#CC4949"/>
</svg>
